<?xml version="1.0" encoding="UTF-8" standalone="no"?>
<!DOCTYPE svg PUBLIC "-//W3C//DTD SVG 1.1//EN" "http://www.w3.org/Graphics/SVG/1.1/DTD/svg11.dtd">
<svg width="100%" height="100%" viewBox="0 0 22 22" version="1.1" xmlns="http://www.w3.org/2000/svg" xmlns:xlink="http://www.w3.org/1999/xlink" xml:space="preserve" xmlns:serif="http://www.serif.com/" style="fill-rule:evenodd;clip-rule:evenodd;stroke-linecap:round;stroke-linejoin:round;">
    <g transform="matrix(1,0,0,1,-259,-339.001)">
        <g transform="matrix(1,0,0,1,257.994,338.001)">
            <circle cx="11" cy="4" r="2" style="fill:none;stroke:rgb(255,89,46);stroke-width:2px;"/>
        </g>
        <g transform="matrix(1,0,0,1,257.994,338.001)">
            <circle cx="18" cy="8" r="2" style="fill:none;stroke:rgb(255,89,46);stroke-width:2px;"/>
        </g>
        <g transform="matrix(1,0,0,1,257.994,338.001)">
            <circle cx="20" cy="16" r="2" style="fill:none;stroke:rgb(255,89,46);stroke-width:2px;"/>
        </g>
        <g transform="matrix(1,0,0,1,257.994,338.001)">
            <path d="M9,10C11.743,10 14,12.257 14,15L14,18.5C13.999,20.42 12.42,21.999 10.5,21.999C8.974,21.999 7.616,21.001 7.16,19.545C6.733,18.168 5.833,17.267 4.46,16.84C3.004,16.384 2.006,15.026 2.006,13.5C2.006,11.582 3.582,10.003 5.5,10L9,10Z" style="fill:none;fill-rule:nonzero;stroke:rgb(255,89,46);stroke-width:2px;"/>
        </g>
    </g>
</svg>
